<svg xmlns="http://www.w3.org/2000/svg" width="48" height="48" fill="none" viewBox="0 0 48 48"><rect width="48" height="48" fill="#FF5A5F" rx="24"/><path fill="#fff" d="M24 30.3201C22.4265 28.3408 21.501 26.6059 21.1924 25.1215C20.8839 23.9154 21.0073 22.9567 21.5318 22.2454C22.0872 21.4104 22.9202 21.0084 24 21.0084C25.0798 21.0084 25.9128 21.4104 26.4682 22.2454C26.9927 22.9567 27.1161 23.9154 26.8076 25.1215C26.4682 26.6368 25.5426 28.3687 24 30.3201ZM35.1747 31.6499C34.9588 33.1034 33.9715 34.3095 32.614 34.8971C29.9915 36.0413 27.3968 34.2167 25.1755 31.7427C28.85 27.1317 29.5287 23.5443 27.9522 21.2218C27.0266 19.892 25.7 19.2425 24 19.2425C20.5754 19.2425 18.6903 22.1495 19.4308 25.5235C19.8627 27.3481 21.0042 29.4232 22.8245 31.7427C21.683 33.0106 20.6032 33.9074 19.6467 34.4641C18.9063 34.8661 18.1967 35.1135 17.5179 35.1754C14.4018 35.6393 11.9614 32.6086 13.0721 29.482C13.2264 29.08 13.5349 28.3377 14.0594 27.1935L14.0902 27.1317C15.7871 23.4175 17.8573 19.2116 20.2329 14.5388L20.2946 14.3841L20.9734 13.0853C21.4979 12.1266 21.7138 11.6936 22.5469 11.1679C22.9479 10.9205 23.4416 10.7968 23.9969 10.7968C25.1076 10.7968 25.9715 11.4462 26.3417 11.9719C26.5268 12.2503 26.7428 12.6214 27.0204 13.0853L27.6683 14.3532L27.7609 14.5388C30.1365 19.2116 32.2067 23.4175 33.9036 27.1317L33.9345 27.1626L34.5515 28.5852L34.9217 29.482C35.2056 30.1964 35.2673 30.9077 35.1747 31.6499ZM36.5939 28.8635C36.378 28.1831 36.0077 27.3791 35.545 26.4204V26.3894C33.3544 21.7166 31.3151 17.5107 29.3714 13.7347L29.248 13.5491C27.8596 10.704 26.8724 9 24 9C21.1616 9 19.9553 10.9792 18.7212 13.5491L18.6286 13.7347C16.6849 17.5107 14.6456 21.7166 12.455 26.3894V26.4513L11.8071 27.8739C11.5603 28.4615 11.4369 28.7707 11.4061 28.8635C9.83259 33.1962 13.0721 37 16.9934 37C17.0243 37 17.1477 37 17.302 36.9691H17.7339C19.7701 36.7217 21.8712 35.4228 24 33.1003C26.1288 35.4197 28.2299 36.7217 30.2661 36.9691H30.698C30.8523 37 30.9757 37 31.0066 37C34.9279 37.0031 38.1674 33.1962 36.5939 28.8635Z"/></svg>